<?xml version="1.0" standalone="yes"?>
<!-- SVG graphic -->
<svg xmlns='http://www.w3.org/2000/svg' xmlns:xlink='http://www.w3.org/1999/xlink'
width="170px" height="170px" preserveAspectRatio="xMinYMin meet" viewBox="0 0 170 170" version="1.1">
<rect x="5" y="0" width="2.5" height="2.5" fill="rgb(6,0,248)" opacity="1"/>
<rect x="10" y="0" width="2.5" height="2.5" fill="rgb(0,0,254)" opacity="1"/>
<rect x="50" y="0" width="2.5" height="2.5" fill="rgb(2,0,252)" opacity="1"/>
<rect x="55" y="0" width="2.5" height="2.5" fill="rgb(19,0,235)" opacity="1"/>
<rect x="60" y="0" width="2.5" height="2.5" fill="rgb(2,0,252)" opacity="1"/>
<rect x="115" y="0" width="2.5" height="2.5" fill="rgb(69,0,185)" opacity="1"/>
<rect x="120" y="0" width="2.5" height="2.5" fill="rgb(2,0,252)" opacity="1"/>
<rect x="150" y="0" width="2.5" height="2.5" fill="rgb(5,0,249)" opacity="1"/>
<rect x="10" y="5" width="2.5" height="2.5" fill="rgb(19,0,235)" opacity="1"/>
<rect x="15" y="5" width="2.5" height="2.5" fill="rgb(2,0,252)" opacity="1"/>
<rect x="65" y="5" width="2.5" height="2.5" fill="rgb(2,0,252)" opacity="1"/>
<rect x="115" y="5" width="2.5" height="2.5" fill="rgb(6,0,248)" opacity="1"/>
<rect x="120" y="5" width="2.5" height="2.5" fill="rgb(106,0,148)" opacity="1"/>
<rect x="125" y="5" width="2.5" height="2.5" fill="rgb(5,0,249)" opacity="1"/>
<rect x="15" y="10" width="2.5" height="2.5" fill="rgb(18,0,236)" opacity="1"/>
<rect x="65" y="10" width="2.5" height="2.5" fill="rgb(2,0,252)" opacity="1"/>
<rect x="70" y="10" width="2.5" height="2.5" fill="rgb(2,0,252)" opacity="1"/>
<rect x="120" y="10" width="2.5" height="2.5" fill="rgb(51,0,203)" opacity="1"/>
<rect x="125" y="10" width="2.5" height="2.5" fill="rgb(31,0,223)" opacity="1"/>
<rect x="20" y="15" width="2.5" height="2.5" fill="rgb(10,0,244)" opacity="1"/>
<rect x="70" y="15" width="2.5" height="2.5" fill="rgb(2,0,252)" opacity="1"/>
<rect x="75" y="15" width="2.5" height="2.5" fill="rgb(2,0,252)" opacity="1"/>
<rect x="120" y="15" width="2.5" height="2.5" fill="rgb(4,0,250)" opacity="1"/>
<rect x="125" y="15" width="2.5" height="2.5" fill="rgb(82,0,172)" opacity="1"/>
<rect x="130" y="15" width="2.5" height="2.5" fill="rgb(2,0,252)" opacity="1"/>
<rect x="25" y="20" width="2.5" height="2.5" fill="rgb(8,0,246)" opacity="1"/>
<rect x="75" y="20" width="2.5" height="2.5" fill="rgb(2,0,252)" opacity="1"/>
<rect x="80" y="20" width="2.5" height="2.5" fill="rgb(1,0,253)" opacity="1"/>
<rect x="125" y="20" width="2.5" height="2.5" fill="rgb(3,0,251)" opacity="1"/>
<rect x="130" y="20" width="2.5" height="2.5" fill="rgb(52,0,202)" opacity="1"/>
<rect x="30" y="25" width="2.5" height="2.5" fill="rgb(6,0,248)" opacity="1"/>
<rect x="80" y="25" width="2.5" height="2.5" fill="rgb(2,0,252)" opacity="1"/>
<rect x="130" y="25" width="2.5" height="2.5" fill="rgb(21,0,233)" opacity="1"/>
<rect x="135" y="25" width="2.5" height="2.5" fill="rgb(13,0,241)" opacity="1"/>
<rect x="35" y="30" width="2.5" height="2.5" fill="rgb(2,0,252)" opacity="1"/>
<rect x="135" y="30" width="2.5" height="2.5" fill="rgb(97,0,157)" opacity="1"/>
<rect x="140" y="30" width="2.5" height="2.5" fill="rgb(3,0,251)" opacity="1"/>
<rect x="40" y="35" width="2.5" height="2.5" fill="rgb(10,0,244)" opacity="1"/>
<rect x="140" y="35" width="2.5" height="2.5" fill="rgb(169,0,85)" opacity="1"/>
<rect x="45" y="40" width="2.5" height="2.5" fill="rgb(8,0,246)" opacity="1"/>
<rect x="95" y="40" width="2.5" height="2.5" fill="rgb(2,0,252)" opacity="1"/>
<rect x="100" y="40" width="2.5" height="2.5" fill="rgb(2,0,252)" opacity="1"/>
<rect x="140" y="40" width="2.5" height="2.5" fill="rgb(6,0,248)" opacity="1"/>
<rect x="145" y="40" width="2.5" height="2.5" fill="rgb(17,0,237)" opacity="1"/>
<rect x="50" y="45" width="2.5" height="2.5" fill="rgb(11,0,243)" opacity="1"/>
<rect x="105" y="45" width="2.5" height="2.5" fill="rgb(6,0,248)" opacity="1"/>
<rect x="110" y="45" width="2.5" height="2.5" fill="rgb(1,0,253)" opacity="1"/>
<rect x="145" y="45" width="2.5" height="2.5" fill="rgb(23,0,231)" opacity="1"/>
<rect x="150" y="45" width="2.5" height="2.5" fill="rgb(2,0,252)" opacity="1"/>
<rect x="55" y="50" width="2.5" height="2.5" fill="rgb(30,0,224)" opacity="1"/>
<rect x="105" y="50" width="2.5" height="2.5" fill="rgb(7,0,247)" opacity="1"/>
<rect x="110" y="50" width="2.5" height="2.5" fill="rgb(4,0,250)" opacity="1"/>
<rect x="115" y="50" width="2.5" height="2.5" fill="rgb(1,0,253)" opacity="1"/>
<rect x="145" y="50" width="2.5" height="2.5" fill="rgb(1,0,253)" opacity="1"/>
<rect x="150" y="50" width="2.5" height="2.5" fill="rgb(38,0,216)" opacity="1"/>
<rect x="60" y="55" width="2.5" height="2.5" fill="rgb(7,0,247)" opacity="1"/>
<rect x="110" y="55" width="2.5" height="2.5" fill="rgb(6,0,248)" opacity="1"/>
<rect x="115" y="55" width="2.5" height="2.5" fill="rgb(6,0,248)" opacity="1"/>
<rect x="150" y="55" width="2.5" height="2.5" fill="rgb(13,0,241)" opacity="1"/>
<rect x="65" y="60" width="2.5" height="2.5" fill="rgb(13,0,241)" opacity="1"/>
<rect x="110" y="60" width="2.5" height="2.5" fill="rgb(22,0,232)" opacity="1"/>
<rect x="70" y="65" width="2.5" height="2.5" fill="rgb(29,0,225)" opacity="1"/>
<rect x="75" y="65" width="2.5" height="2.5" fill="rgb(3,0,251)" opacity="1"/>
<rect x="120" y="65" width="2.5" height="2.5" fill="rgb(2,0,252)" opacity="1"/>
<rect x="75" y="70" width="2.5" height="2.5" fill="rgb(25,0,229)" opacity="1"/>
<rect x="125" y="70" width="2.5" height="2.5" fill="rgb(1,0,253)" opacity="1"/>
<rect x="80" y="75" width="2.5" height="2.5" fill="rgb(15,0,239)" opacity="1"/>
<rect x="125" y="75" width="2.5" height="2.5" fill="rgb(1,0,253)" opacity="1"/>
<rect x="85" y="80" width="2.5" height="2.5" fill="rgb(10,0,244)" opacity="1"/>
<rect x="95" y="90" width="2.5" height="2.5" fill="rgb(3,0,251)" opacity="1"/>
<rect x="100" y="90" width="2.5" height="2.5" fill="rgb(3,0,251)" opacity="1"/>
<rect x="100" y="95" width="2.5" height="2.5" fill="rgb(255,0,0)" opacity="1"/>
<rect x="105" y="95" width="2.5" height="2.5" fill="rgb(8,0,246)" opacity="1"/>
<rect x="105" y="100" width="2.5" height="2.5" fill="rgb(9,0,245)" opacity="1"/>
<rect x="110" y="105" width="2.5" height="2.5" fill="rgb(17,0,237)" opacity="1"/>
<rect x="120" y="115" width="2.5" height="2.5" fill="rgb(2,0,252)" opacity="1"/>
<rect x="150" y="115" width="2.5" height="2.5" fill="rgb(2,0,252)" opacity="1"/>
<rect x="125" y="120" width="2.5" height="2.5" fill="rgb(17,0,237)" opacity="1"/>
<rect x="130" y="125" width="2.5" height="2.5" fill="rgb(1,0,253)" opacity="1"/>
<text x="160" y="5" font-size="5" fill="black">0</text>
<text x="160" y="150" font-size="5" fill="black">31</text>
<polyline points="160,10,160,145" stroke="black" stroke-width="1" fill="none" opacity="1"/>
<text x="5" y="160" font-size="5" fill="black">0</text>
<text x="150" y="160" font-size="5" fill="black">31</text>
<polyline points="10,160,145,160" stroke="black" stroke-width="1" fill="none" opacity="1"/>
</svg>